<svg width="17" height="16" viewBox="0 0 17 16" fill="none" xmlns="http://www.w3.org/2000/svg">
    <path d="M6.501 13.333c-.366 0-.68-.13-.941-.392a1.284 1.284 0 0 1-.392-.942c0-.366.13-.68.392-.941.26-.261.575-.392.941-.392.367 0 .68.13.942.392.261.26.392.575.392.941 0 .367-.13.68-.392.942a1.284 1.284 0 0 1-.942.392zm4 0c-.366 0-.68-.13-.941-.392a1.284 1.284 0 0 1-.392-.942c0-.366.13-.68.392-.941.26-.261.575-.392.941-.392.367 0 .68.13.942.392.261.26.392.575.392.941 0 .367-.13.68-.392.942a1.284 1.284 0 0 1-.942.392zm-4-4c-.366 0-.68-.13-.941-.392a1.284 1.284 0 0 1-.392-.942c0-.366.13-.68.392-.941.26-.261.575-.392.941-.392.367 0 .68.13.942.392.261.26.392.575.392.941 0 .367-.13.68-.392.942a1.284 1.284 0 0 1-.942.392zm4 0c-.366 0-.68-.13-.941-.392a1.284 1.284 0 0 1-.392-.942c0-.366.13-.68.392-.941.26-.261.575-.392.941-.392.367 0 .68.13.942.392.261.26.392.575.392.941 0 .367-.13.68-.392.942a1.284 1.284 0 0 1-.942.392zm-4-4c-.366 0-.68-.13-.941-.392a1.284 1.284 0 0 1-.392-.942c0-.366.13-.68.392-.941.26-.261.575-.392.941-.392.367 0 .68.13.942.392.261.26.392.575.392.941 0 .367-.13.68-.392.942a1.284 1.284 0 0 1-.942.392zm4 0c-.366 0-.68-.13-.941-.392a1.284 1.284 0 0 1-.392-.942c0-.366.13-.68.392-.941.26-.261.575-.392.941-.392.367 0 .68.13.942.392.261.26.392.575.392.941 0 .367-.13.68-.392.942a1.284 1.284 0 0 1-.942.392z" fill="#fff"/>
</svg>
